<?xml version="1.0" encoding="utf-8"?>
<!-- Generator: Adobe Illustrator 27.3.1, SVG Export Plug-In . SVG Version: 6.00 Build 0)  -->
<svg version="1.1" id="Layer_1" xmlns="http://www.w3.org/2000/svg" xmlns:xlink="http://www.w3.org/1999/xlink" x="0px" y="0px"
	 viewBox="0 0 166.6 68.2" style="enable-background:new 0 0 166.6 68.2;" xml:space="preserve">
<style type="text/css">
	.st0{fill:#1753C2;}
</style>
<g>
	<path class="st0" d="M157.7,51.1c-17.4,0-34.9-0.1-52.3-0.1c-1.1,0-2.2,0-3.1-0.7c-0.7-0.5-1.1-1.2-1.4-2c-6-11.8-12-23.5-18-35.3
		c-3.3-6.4-7.4-13.6-16-13c-1.2,0.1-2.5,0.4-3.7,0.8c-5.6,2-9.5,6.4-13.3,10.6C41.6,20.8,33.3,30.2,25,39.6
		c-4.2,4.7-8.4,9.5-12.6,14.2c-4,4.5-9.2,9-12.4,14.1c2.4,1,6.6,0.3,9.2,0.3c3.2,0,6.5,0.1,9.7,0.1c1.5,0,3.1,0,4.6-0.6
		c1.7-0.7,3-2.1,4.2-3.5c11.9-13.4,23.8-26.9,35.7-40.3L77.2,51c-7.7,0-15.3-0.1-23-0.1c-2,0-4.1,0-5.8,0.9c-1.3,0.7-2.3,1.8-3.3,3
		c-3.9,4.4-7.7,8.9-11.6,13.3c34.3,0,68.7,0.1,103.1,0.1c1.8,0,3.7,0,5.4-0.8c1.4-0.7,2.5-1.9,3.6-3c4.1-4.5,8.3-8.9,12.4-13.4
		L157.7,51.1L157.7,51.1z"/>
	<path class="st0" d="M166.5,1.4L166.5,1.4c-25.3-0.1-50.7-0.1-76.1-0.1c-0.3,0-0.6,0-0.8,0.2s-0.3,0.4-0.5,0.7
		c-2.7,6.3-0.2,11.2,2.7,16.7c3.8,7,7.2,14.2,10.9,21.2c0.3,0.5,0.5,1,1,1.3c0.6,0.4,1.4,0.4,2.1,0.4c11.8,0,23.5,0,35.3,0
		c0.9,0,1.9,0,2.8-0.4c0.9-0.4,1.6-1.1,2.3-1.9c4-4.3,8-8.6,12-12.9c-17.3,0-34.5,0-51.8,0c-0.3,0-0.5,0-0.7-0.2
		c-0.2-0.2-0.2-0.6-0.1-0.9c0.3-1.9,0.7-3.8,1-5.6c0.1-0.4,0.1-0.8,0.4-1c0.3-0.2,0.7-0.2,1-0.2c13,0,26,0.1,39.1,0.1
		c1.1,0,2.2,0,3.2-0.5c0.8-0.4,1.4-1,1.9-1.6C157,11.6,161.7,6.5,166.5,1.4L166.5,1.4z"/>
</g>
</svg>
