<?xml version="1.0" encoding="UTF-8"?>
<svg id="Layer_1" data-name="Layer 1" xmlns="http://www.w3.org/2000/svg" viewBox="0 0 200 200">
  <defs>
    <style>
      .cls-1 {
        fill: #fff;
      }

      .cls-2 {
        fill: #1753c2;
      }
    </style>
  </defs>
  <rect class="cls-1" x="0" width="200" height="200" rx="24.71" ry="24.71"/>
  <g>
    <path class="cls-2" d="m174.43,116.85c-17.45-.03-34.9-.05-52.35-.08-1.08,0-2.24-.03-3.11-.66-.66-.48-1.05-1.23-1.42-1.96-5.99-11.77-11.97-23.54-17.96-35.32-3.28-6.45-7.36-13.62-16.01-13-1.25.09-2.48.37-3.66.79-5.6,2-9.49,6.36-13.29,10.64-8.31,9.37-16.62,18.74-24.93,28.11-4.2,4.74-8.4,9.47-12.6,14.21-3.99,4.5-9.18,9.01-12.39,14.08,2.38.96,6.56.26,9.2.29,3.24.04,6.48.08,9.72.12,1.54.02,3.13.03,4.56-.55,1.69-.68,2.97-2.09,4.18-3.46,11.91-13.44,23.82-26.89,35.74-40.33l13.84,27.08c-7.67-.03-15.35-.06-23.02-.1-1.99,0-4.08,0-5.84.93-1.32.7-2.34,1.85-3.32,2.98-3.86,4.43-7.73,8.86-11.59,13.29,34.35.03,68.71.06,103.06.09,1.82,0,3.72-.01,5.37-.79,1.42-.67,2.52-1.85,3.58-3,4.13-4.46,8.27-8.92,12.4-13.38h-.17Z"/>
    <path class="cls-2" d="m183.22,67.2l.06-.07c-25.39,0-50.77-.02-76.16-.03-.27,0-.55,0-.78.15-.23.15-.35.41-.46.65-2.67,6.25-.2,11.24,2.72,16.67,3.76,7,7.24,14.18,10.87,21.25.26.5.53,1.01.98,1.34.59.42,1.37.44,2.09.44,11.77,0,23.55,0,35.32,0,.94,0,1.92,0,2.79-.37.92-.39,1.63-1.14,2.31-1.86,4.01-4.3,8.02-8.59,12.02-12.89-17.27,0-34.54-.02-51.81-.03-.26,0-.54-.01-.72-.19-.23-.23-.2-.6-.14-.93.33-1.87.66-3.75.99-5.62.07-.37.15-.78.44-1.02.28-.23.68-.24,1.04-.24,13.02.03,26.03.05,39.05.08,1.08,0,2.21,0,3.18-.49.75-.37,1.35-1,1.92-1.61,4.76-5.08,9.52-10.16,14.29-15.24Z"/>
  </g>
</svg>