<?xml version="1.0" encoding="utf-8"?>
<!-- Generator: Adobe Illustrator 27.3.1, SVG Export Plug-In . SVG Version: 6.00 Build 0)  -->
<svg version="1.1" id="Layer_1" xmlns="http://www.w3.org/2000/svg" xmlns:xlink="http://www.w3.org/1999/xlink" x="0px" y="0px"
	 viewBox="0 0 200 174" style="enable-background:new 0 0 200 174;" xml:space="preserve">
<style type="text/css">
	.st0{fill:#00558B;}
	.st1{fill:#FCFDFF;}
	.st2{fill:#F8F7F2;}
</style>
<g>
	<path class="st0" d="M186.2,174H13.8C6.2,174,0,167.9,0,160.3V13.8C0,6.2,6.2,0,13.8,0h172.5c7.6,0,13.8,6.2,13.8,13.8v146.5
		C200,167.9,193.8,174,186.2,174z"/>
	<g>
		<g>
			<g>
				<path class="st1" d="M46.9,91.5v36.2H27V45.8h20v35.9l27.3-35.9h23.5L66,85.9l32.9,41.8H74.5L46.9,91.5z"/>
			</g>
		</g>
		<path class="st2" d="M150.7,100.8c-3.4,6.6-9.5,9.8-16.8,9.8c-12.3,0-20.7-9.1-20.7-23.6s8.4-23.6,20.7-23.6
			c7.6,0,13.8,3.5,17.2,10.5l19-8c-6.5-13-19.5-20.7-35.9-20.7c-24.2,0-41.2,17.3-41.2,41.8s17,41.7,41.2,41.7
			c13,0,23.9-4.9,31.1-13.4l7.5,7.5V89.8h-33.1L150.7,100.8z"/>
	</g>
</g>
</svg>
