<?xml version="1.0" encoding="utf-8"?>
<!-- Generator: Adobe Illustrator 27.3.1, SVG Export Plug-In . SVG Version: 6.00 Build 0)  -->
<svg version="1.1" id="Layer_1" xmlns="http://www.w3.org/2000/svg" xmlns:xlink="http://www.w3.org/1999/xlink" x="0px" y="0px"
	 viewBox="0 0 54.8 122" style="enable-background:new 0 0 54.8 122;" xml:space="preserve">
<style type="text/css">
	.st0{fill-rule:evenodd;clip-rule:evenodd;fill:#439934;}
	.st1{fill-rule:evenodd;clip-rule:evenodd;fill:#45A538;}
	.st2{fill-rule:evenodd;clip-rule:evenodd;fill:#46A037;}
	.st3{fill-rule:evenodd;clip-rule:evenodd;fill:#409433;}
	.st4{fill-rule:evenodd;clip-rule:evenodd;fill:#4FAA41;}
	.st5{fill-rule:evenodd;clip-rule:evenodd;fill:#4AA73C;}
	.st6{fill-rule:evenodd;clip-rule:evenodd;fill:#57AE47;}
	.st7{fill-rule:evenodd;clip-rule:evenodd;fill:#60B24F;}
	.st8{fill-rule:evenodd;clip-rule:evenodd;fill:#A9AA88;}
	.st9{fill-rule:evenodd;clip-rule:evenodd;fill:#B6B598;}
	.st10{fill-rule:evenodd;clip-rule:evenodd;fill:#C2C1A7;}
	.st11{fill-rule:evenodd;clip-rule:evenodd;fill:#CECDB7;}
	.st12{fill-rule:evenodd;clip-rule:evenodd;fill:#DBDAC7;}
	.st13{fill-rule:evenodd;clip-rule:evenodd;fill:#EBE9DC;}
</style>
<path class="st0" d="M51.4,39.8c1.6,4.6,2.8,9.4,3.1,14.3c0.5,6.1,0.3,12.1-1,18.1c0,0.2-0.1,0.3-0.2,0.5c-0.4,0-0.8,0-1.2,0
	c-3.3,0.5-6.7,1.1-10,1.6c-3.4,0.6-6.9,1.1-10.3,1.7c-1.2,0.2-2.7,0-3.2,1.6c0,0-0.2,0.1-0.2,0.1l0.2-10.1l-0.2-24.3l1.6-0.3
	c2.6-0.4,5.2-0.9,7.9-1.3c3.1-0.5,6.3-1,9.4-1.5C48.7,40.2,50.1,40,51.4,39.8z"/>
<path class="st1" d="M25.1,107c-1.7-1.5-3.4-2.8-5.1-4.4C11.4,94.4,5,84.8,1.8,73.1c-0.9-3.2-1.4-6.5-1.6-9.8
	c-0.1-2.3-0.3-4.7-0.2-7c0.4-6.1,1.3-12.2,3.1-18.1l0.1-0.1c0.2,0.2,0.4,0.4,0.5,0.7C5.6,43.9,7.3,49.1,9,54.3
	c5.5,16.3,10.9,32.6,16.4,48.9c0.1,0.3,0.4,0.6,0.6,0.9C26,104.1,25.1,107,25.1,107z"/>
<path class="st2" d="M51.4,39.8c-1.4,0.2-2.8,0.4-4.1,0.6c-3.1,0.5-6.3,1-9.4,1.5c-2.6,0.4-5.2,0.9-7.9,1.3l-1.6,0.3l0-1
	c-0.1-0.9-0.1-1.7-0.2-2.6c-0.1-5.5-0.1-11-0.2-16.4c0-3.4-0.1-6.9-0.2-10.3c0-2.1-0.1-4.3-0.2-6.4c-0.1-1.1-0.2-2.3-0.3-3.4
	c0-0.7,0-1.3,0-2c0.8,1.6,1.6,3.2,2.5,4.7c1.3,2.5,3.4,4.3,5.3,6.3C42.8,20.3,48.1,29.4,51.4,39.8z"/>
<path class="st3" d="M28.4,77.7c0.1,0,0.2,0,0.2-0.1c0.5-1.7,2-1.4,3.2-1.6c3.4-0.6,6.9-1.1,10.3-1.7c3.3-0.5,6.7-1.1,10-1.6
	c0.4-0.1,0.8,0,1.2,0c-0.6,2.2-1.1,4.5-1.9,6.6c-0.9,2.4-2,4.8-3.1,7.2c-1.7,3.5-3.9,6.8-6.4,9.8c-1.9,2.3-4.1,4.4-6.2,6.5
	c-1.2,1.2-2.6,2.1-3.9,3.2l-0.3-0.2l-1.2-1l-1.3-2.8c-0.9-3.2-1.3-6.5-1.4-9.8l0-0.6l0.2-2.4c0.1-0.8,0.1-1.7,0.2-2.5
	C28.2,83.7,28.3,80.7,28.4,77.7L28.4,77.7z"/>
<path class="st4" d="M28.4,77.7c-0.1,3-0.2,6-0.4,8.9c0,0.8-0.1,1.7-0.2,2.5l-0.8,0.3c-1.7-5-3.4-10-5.1-14.9
	c-2.8-8.2-5.5-16.4-8.2-24.6C11.7,43.3,9.4,36.7,7.2,30c-0.1-0.3-0.4-0.6-0.6-0.8l4.9-9c0.2,0.3,0.4,0.6,0.5,0.9
	c2.3,6.7,4.5,13.4,6.8,20.1c2.9,8.7,5.8,17.5,8.7,26.2c0.1,0.3,0.3,0.7,0.5,1.1l0.7-0.8C28.6,67.7,28.4,77.7,28.4,77.7z"/>
<path class="st5" d="M6.6,29.2c0.2,0.3,0.5,0.5,0.6,0.8c2.2,6.6,4.5,13.2,6.7,19.9c2.7,8.2,5.5,16.4,8.2,24.6
	c1.7,5,3.4,9.9,5.1,14.9l0.8-0.3l-0.2,2.4l-0.2,0.6c-0.3,2.7-0.5,5.3-0.8,8c-0.2,1.3-0.5,2.6-0.8,3.9c-0.2-0.3-0.5-0.5-0.6-0.9
	C20,86.9,14.5,70.6,9,54.3c-1.7-5.2-3.5-10.4-5.2-15.6c-0.1-0.3-0.3-0.5-0.5-0.7C3.3,38.1,6.6,29.2,6.6,29.2z"/>
<path class="st6" d="M28.6,67.7l-0.7,0.8c-0.2-0.4-0.4-0.7-0.5-1.1c-2.9-8.7-5.8-17.5-8.7-26.2c-2.2-6.7-4.5-13.4-6.8-20.1
	c-0.1-0.3-0.3-0.6-0.5-0.9l6.1-8c0.2,0.3,0.5,0.5,0.6,0.8c1.7,4.9,3.3,9.8,5,14.8c1.5,4.6,3.1,9.2,4.6,13.8c0.1,0.3,0.5,0.5,0.7,0.8
	l0,1C28.5,51.5,28.6,59.6,28.6,67.7z"/>
<path class="st7" d="M28.4,42.4c-0.2-0.3-0.6-0.5-0.7-0.8c-1.6-4.6-3.1-9.2-4.6-13.8c-1.7-4.9-3.3-9.9-5-14.8
	c-0.1-0.3-0.4-0.5-0.6-0.8c2-1.9,3.9-3.9,5.9-5.8c1.8-1.6,3.3-3.4,3.4-6c0-0.1,0.1-0.2,0.1-0.5l0.5,1.3c0,0.7-0.1,1.3,0,2
	c0.1,1.1,0.3,2.3,0.3,3.4c0.1,2.1,0.1,4.3,0.2,6.4c0.1,3.4,0.1,6.9,0.2,10.3c0.1,5.5,0.1,11,0.2,16.4C28.3,40.7,28.4,41.5,28.4,42.4
	z"/>
<path class="st8" d="M26,104.1c0.3-1.3,0.6-2.6,0.8-3.9c0.3-2.6,0.5-5.3,0.8-8l0.1,0l0.1,0c0.1,3.3,0.5,6.6,1.4,9.8
	c-0.2,0.2-0.4,0.4-0.5,0.7c-0.7,2.1-1.4,4.1-2.1,6.2c-0.1,0.3-0.4,0.5-0.6,0.7l-0.7-2.6C25.1,107,26,104.1,26,104.1z"/>
<path class="st9" d="M25.9,109.6c0.2-0.2,0.5-0.5,0.6-0.7c0.7-2.1,1.4-4.1,2.1-6.2c0.1-0.3,0.3-0.5,0.5-0.7l1.3,2.8
	c-0.2,0.4-0.6,0.7-0.7,1.1l-2.4,7.1c-0.1,0.3-0.4,0.5-0.7,0.7C26.6,113.6,25.9,109.6,25.9,109.6z"/>
<path class="st10" d="M26.6,113.6c0.2-0.2,0.6-0.4,0.7-0.7l2.4-7.1c0.1-0.4,0.5-0.7,0.7-1.1l1.2,1c-0.6,0.6-0.9,1.2-0.7,2.1
	l-0.4,1.2c-0.2,0.2-0.4,0.4-0.5,0.6c-0.8,2.4-1.6,4.8-2.5,7.2c-0.1,0.3-0.4,0.5-0.6,0.8C26.8,116.4,26.7,115,26.6,113.6L26.6,113.6z
	"/>
<path class="st11" d="M26.9,117.8c0.2-0.3,0.5-0.5,0.6-0.8c0.8-2.4,1.6-4.8,2.5-7.2c0.1-0.2,0.3-0.4,0.5-0.6l-0.5,5.5
	c-0.1,0.2-0.3,0.3-0.4,0.5c-0.6,1.6-1.1,3.2-1.7,4.9c-0.1,0.3-0.3,0.6-0.5,0.9c-0.2-0.2-0.4-0.4-0.5-0.6
	C26.9,119.4,26.9,118.6,26.9,117.8z"/>
<path class="st12" d="M27.4,120.9c0.2-0.3,0.4-0.6,0.5-0.9c0.6-1.6,1.1-3.2,1.7-4.9c0.1-0.2,0.3-0.3,0.4-0.5l0,3.6l-1.2,3.1
	C28.8,121.4,27.4,120.9,27.4,120.9z"/>
<path class="st13" d="M28.8,121.4l1.2-3.1l0.3,3.7L28.8,121.4z"/>
<path class="st11" d="M30.9,107.9c-0.2-0.8,0.1-1.5,0.7-2.1l0.3,0.2L30.9,107.9z"/>
<path class="st4" d="M27.7,92.2L27.7,92.2l-0.1,0l0.2-0.6C27.7,91.6,27.7,92.2,27.7,92.2z"/>
</svg>
