<?xml version="1.0" encoding="utf-8"?>
<!-- Generator: Adobe Illustrator 27.3.1, SVG Export Plug-In . SVG Version: 6.00 Build 0)  -->
<svg version="1.1" id="Layer_1" xmlns="http://www.w3.org/2000/svg" xmlns:xlink="http://www.w3.org/1999/xlink" x="0px" y="0px"
	 viewBox="0 0 69.7 78.4" style="enable-background:new 0 0 69.7 78.4;" xml:space="preserve">
<style type="text/css">
	.st0{fill:#5FA04E;}
</style>
<g>
	<path class="st0" d="M34.8,78.4c-1.1,0-2.1-0.3-3-0.8l-9.6-5.7c-1.4-0.8-0.7-1.1-0.3-1.2c1.9-0.6,2.3-0.8,4.3-1.9
		c0.2-0.1,0.5-0.1,0.7,0.1l7.4,4.4c0.3,0.1,0.6,0.1,0.9,0L64,56.5c0.3-0.1,0.4-0.4,0.4-0.8V22.6c0-0.4-0.1-0.6-0.4-0.8L35.2,5.2
		c-0.3-0.1-0.7-0.1-0.9,0L5.6,21.8c-0.3,0.1-0.4,0.5-0.4,0.8v33.2c0,0.3,0.1,0.6,0.4,0.8l7.9,4.5c4.3,2.2,6.9-0.4,6.9-2.9V25.4
		c0-0.4,0.4-0.9,0.9-0.9h3.7c0.4,0,0.9,0.4,0.9,0.9v32.8c0,5.7-3.1,9-8.5,9c-1.7,0-3,0-6.6-1.8L3,61.1C1.2,60,0,58,0,55.8V22.6
		c0-2.2,1.2-4.2,3-5.3L31.8,0.8c1.8-1,4.3-1,6.1,0l28.8,16.6c1.9,1.1,3,3.1,3,5.3v33.2c0,2.2-1.2,4.2-3,5.3L37.9,77.7
		C37,78.1,35.9,78.4,34.8,78.4z"/>
	<path class="st0" d="M43.8,55.5c-12.6,0-15.2-5.8-15.2-10.7c0-0.4,0.4-0.9,0.9-0.9h3.8c0.4,0,0.8,0.3,0.8,0.7
		c0.6,3.8,2.2,5.7,9.9,5.7c6.1,0,8.7-1.4,8.7-4.6c0-1.9-0.7-3.2-10.2-4.2c-7.9-0.8-12.8-2.5-12.8-8.8c0-5.8,4.9-9.3,13.1-9.3
		c9.2,0,13.8,3.2,14.3,10.1c0,0.2-0.1,0.4-0.2,0.6c-0.1,0.1-0.4,0.3-0.6,0.3h-3.8c-0.4,0-0.7-0.3-0.8-0.6c-0.9-4-3.1-5.3-9-5.3
		c-6.6,0-7.4,2.3-7.4,4c0,2.1,0.9,2.7,9.9,3.9c8.9,1.2,13,2.8,13,9C58.1,51.9,52.9,55.5,43.8,55.5z"/>
</g>
</svg>
