<?xml version="1.0" encoding="utf-8"?>
<!-- Generator: Adobe Illustrator 27.3.1, SVG Export Plug-In . SVG Version: 6.00 Build 0)  -->
<svg version="1.1" id="Layer_1" xmlns="http://www.w3.org/2000/svg" xmlns:xlink="http://www.w3.org/1999/xlink" x="0px" y="0px"
	 viewBox="0 0 645.7 684.7" style="enable-background:new 0 0 645.7 684.7;" xml:space="preserve">
<style type="text/css">
	.st0{fill:#00BC39;}
</style>
<g transform="translate(0.000000,720.000000) scale(0.100000,-0.100000)">
	<g>
		<path class="st0" d="M3075,7197.4c-540-35-1107-229-1555-532c-473-320-848-752-1091-1256c-133-276-216-536-273-856
			c-43-240-52-602-22-880c40-374,177-822,362-1188l53-103l-123-367c-68-202-191-570-274-818c-84-249-152-459-152-469
			c0-9,13-22,29-28c26-10,29-14,24-45c-6-32-5-34,18-27c41,13,936,298,1314,420c198,63,368,115,378,115c9,0,52-17,95-39
			c366-184,756-294,1171-332c164-14,498-7,659,16c954,132,1766,659,2266,1468c163,264,318,632,401,952c79,307,117,688,96,982
			c-54,781-356,1473-881,2017c-509,527-1157,853-1895,952C3567,7193.4,3193,7205.4,3075,7197.4z M3466,6513.4
			c357-29,650-108,959-259c419-206,770-514,1030-906c200-301,323-625,371-979c23-168,23-508,0-680c-163-1209-1161-2141-2372-2217
			c-427-26-824,44-1212,214c-107,47-284,143-339,183c-17,13-39,24-49,24c-9,0-222-65-472-145s-456-145-457-143c-2,2,62,197,141,433
			c79,237,144,442,144,458s-18,53-44,90c-418,599-554,1426-351,2127c45,152,82,245,155,390c200,391,505,732,880,982
			C2323,6401.4,2914,6557.4,3466,6513.4z"/>
		<path class="st0" d="M2143,5589.4c-23-7-56-23-75-34c-51-32-199-190-245-262c-147-229-180-534-92-832c67-225,149-397,299-629
			c190-292,313-450,510-653c296-305,545-476,927-635c282-118,490-185,607-197c81-8,258,20,362,58c144,52,309,168,373,262
			c64,96,130,313,138,457l6,95l-31,36c-22,24-112,78-294,176c-432,232-487,254-555,218c-17-8-81-73-141-143
			c-178-207-215-243-245-243c-38,0-287,127-403,205c-135,92-223,166-334,281c-132,137-275,333-355,486l-18,36l72,79
			c95,101,134,162,172,268c39,108,37,141-20,290c-51,133-92,243-163,434c-58,157-101,221-161,240
			C2420,5599.4,2190,5604.4,2143,5589.4z"/>
	</g>
</g>
</svg>
